<?xml version="1.0" standalone="no"?><!DOCTYPE svg PUBLIC "-//W3C//DTD SVG 1.1//EN"
  "http://www.w3.org/Graphics/SVG/1.1/DTD/svg11.dtd">
<svg t="1522886546021" class="icon" style="" viewBox="0 0 1024 1024" version="1.1" xmlns="http://www.w3.org/2000/svg"
     p-id="530" xmlns:xlink="http://www.w3.org/1999/xlink" width="200" height="200">
  <defs>
    <style type="text/css"></style>
  </defs>
  <path
    d="M378.88 394.24l261.12 0c20.48 0 30.72-10.24 30.72-25.6s-10.24-25.6-30.72-25.6L378.88 343.04c-20.48 0-30.72 10.24-30.72 25.6S363.52 394.24 378.88 394.24z"
    p-id="531"></path>
  <path
    d="M645.12 445.44 378.88 445.44c-20.48 0-30.72 10.24-30.72 25.6s10.24 25.6 30.72 25.6l261.12 0c20.48 0 30.72-10.24 30.72-25.6S660.48 445.44 645.12 445.44z"
    p-id="532"></path>
  <path
    d="M645.12 547.84 378.88 547.84c-20.48 0-30.72 10.24-30.72 25.6s10.24 25.6 30.72 25.6l261.12 0c20.48 0 30.72-10.24 30.72-25.6S660.48 547.84 645.12 547.84z"
    p-id="533"></path>
</svg>
